<?xml version="1.0" encoding="utf-8"?>
<!-- Designed by Vexels.com - 2019 All Rights Reserved - https://vexels.com/terms-and-conditions/  -->
<svg version="1.1" id="Capa_1" xmlns="http://www.w3.org/2000/svg" xmlns:xlink="http://www.w3.org/1999/xlink" x="0px" y="0px"
	 viewBox="0 0 1200 1200" enable-background="new 0 0 1200 1200" xml:space="preserve">
<g>
	<path fill="#52B252" d="M516.665,450.083C516.665,450.083,516.665,450.084,516.665,450.083c5.365-1.014,9.628,2.349,11.414,6.726
		C526.293,452.431,522.029,449.067,516.665,450.083z M538.108,442.977c-1.853-0.868-3.785-1.595-5.801-2.126
		c-2.954-0.778-5.964-1.118-8.952-1.095c5.115,0.018,10.147,1.177,14.739,3.301C538.099,443.029,538.105,443.003,538.108,442.977z
		 M529.041,933.828c-1.671-14.023-2.574-28.17-6.208-42.254c-4.483-17.374-14.556-33.061-25.326-47.7
		c7.375,13.419,13.268,27.637,18.246,42.127C521.14,901.676,525.457,917.66,529.041,933.828z M246.649,328.072
		c6.488,8.086,10.332,17.804,13.047,27.732c5.304,19.396,6.301,39.736,13.764,58.566c8.521,21.502,22.754,40.206,29.346,62.56
		c7.035,23.854,7.593,47.181,25.286,66.396c15.446,16.774,32.309,31.014,45.677,49.746c25.652,35.949,44.829,76.258,72.914,110.493
		c14.845,18.097,31.253,34.414,42.528,55.166c7.522,13.845,13.181,28.573,18.254,43.487c0.977-23.865,0.735-47.907-8.154-70.054
		c-8.231-20.508-23.672-36.933-34.197-56.193c-4.765-8.72-7.79-17.867-11.106-27.191c-4.86-13.667-11.646-21.201-23.521-29.544
		c-19.347-13.594-34.59-30.18-49.002-48.829c-5.914-7.652-10.695-14.968-13.432-24.263c-0.855-6.106-2.563-11.999-5.122-17.678
		c-2.029-1.541-3.993-3.162-5.891-4.862c-2.301-2.285-4.306-4.787-5.686-7.742c-2.2-4.713-1.592-9.279-4.844-13.601
		c-2.026-2.692-5.316-4.493-7.394-7.278c-5.535-7.421-6.99-17.093-9.207-25.858c-10.149-40.126-24.327-86.874-0.563-125.048
		c1.283-2.058,3.092-3.31,5.014-3.913c2.774-8.041,5.902-15.986,9.216-24.038c-0.925-3.947-1.351-8.084-1.822-12.111
		c-2.775-23.74-11.238-49.981-32.838-60.216c-5.742-2.721-12.111-4.117-17.513-7.462c-7.137-4.418-11.856-11.749-16.515-18.73
		c-7.188-10.774-15.047-21.528-25.909-28.583c-10.862-7.055-25.426-9.755-36.849-3.65c-5.652,3.02-10.303,8.005-16.462,9.778
		c-6.217,1.791-12.96-0.002-19.307,1.252c-9.835,1.943-16.999,11.034-19.67,20.695c-2.67,9.661-1.701,19.907-0.709,29.881
		c2.335,23.51,5.546,48.973,22.094,65.836c2.692,2.744,5.887,5.578,6.226,9.407c0.274,3.112-1.451,6.008-3.1,8.66
		c-7.457,11.984-14.827,24.411-17.593,38.252c-2.766,13.841-0.128,29.558,10.101,39.285c-7.45,19.251-14.952,40.631-7.795,59.992
		c0.326,0.884,0.704,1.748,1.076,2.614c0.871,0.115,1.731,0.29,2.598,0.428c-1.061-3.738,2.754-8.087,7.759-7.254
		c22.452,3.737,42.831,16.972,57.5,34.198c15.98,18.766,23.406,47.045,46.158,59.034c15.6,8.221,27.465,11.695,38.12,26.684
		c14.542,20.458,26.182,42.852,40.122,63.712c23.038,34.475,51.022,65.218,78.77,95.901c17.341,19.176,34.673,38.401,50.969,58.459
		c-6.39-18.132-14.013-35.824-25.423-51.393c-16.345-22.302-35.699-41.581-50.867-64.883
		c-24.789-38.081-45.046-78.752-78.074-110.75c-14.047-13.608-28.946-26.224-36.738-44.675c-10-23.679-11.307-49.311-23.266-72.508
		c-10.266-19.911-20.96-38.656-24.858-61.013c-3.407-19.537-3.122-43.589-17.197-59.233c-10.899-12.112-24.719-15.985-21.896-35.148
		c1.803-12.236,4.302-22.781,3.043-35.289c-1.206-11.966-5.265-22.818-9.507-34.016c-2.803-7.399,9.518-12.057,13.517-5.949
		c14.539,22.202,12.705,46.398,10.402,71.328C226.525,315.906,237.639,316.844,246.649,328.072z M661.226,1054.223
		c-0.061-0.114-0.122-0.228-0.183-0.342c-6-11.456-4.765-25.202-3.241-38.044c1.218-10.273,2.532-20.551,4.006-30.806
		c-15.803,30.952-36.491,59.391-61.422,83.62l-0.562-7.72c-0.782-10.751,1.285-21.538,6.133-31.164
		c8.619-17.113,15.374-35.156,20.205-53.702c0.065-1.371,0.117-2.726,0.133-4.042c0.202-16.075-0.004-32.157-0.992-48.206
		c-2.272-36.911-10.632-71.788-21.976-106.857c-2.255-6.968,7.262-6.546,9.884-2.004c8.786,15.224,14.728,31.475,18.859,48.259
		c-0.367-5.364-0.509-10.729-0.095-16.091c1.358-17.583,8.483-35.449,3.42-52.342c-3.479-11.61-12.207-20.753-18.876-30.874
		c-3.178-4.825-5.897-10.355-7.298-15.993c-1.537-6.188-1.484-12.506,1.369-18.17c3.662-7.273,11.724-13.506,10.147-21.495
		c-0.66-3.339-2.971-6.08-5.282-8.579c-15.139-16.376-35.14-32.024-36.389-54.291c-0.34-6.051,0.816-12.123,0.35-18.166
		c-0.914-11.862-7.89-22.291-14.865-31.929c-2.807-3.877-5.653-7.755-8.429-11.678c-1.883-2.106-3.469-4.371-4.675-6.79
		c-2.56-3.852-4.993-7.775-7.188-11.813c-0.421-0.775-0.864-1.541-1.267-2.325c-0.48,2.853-1.05,5.706-1.737,8.558
		c-3.844,15.949-12.203,28.969-12.459,44.338c-0.239,14.309,6.78,25.156,10.465,37.704c6.673,22.723,6.331,44.273,7.597,67.531
		c0.238,4.351,0.329,8.014,0.448,12.002c0.065,2.219,0.139,4.535,0.251,7.135c0.669,15.511,0.974,23.21,0.939,41.307
		c-0.035,18.097-7.349,29.986-3.982,54.464c8.44,61.35,38.177,136.379,44.018,202.811c1.708,19.414,0.08,27.435-6.513,37.898
		c-3.832,6.082-23.794,19.843-24.816-14.528c-0.734-24.721-5.689-52.706-11.922-81.607c-0.471-2.185-0.961-4.383-1.446-6.577
		c-2.599,0.345-5.119-0.67-6.434-3.853c-1.095-2.648-2.017-5.309-2.85-7.977c2.677,15.489,4.846,31.084,6.767,46.683
		c0.297,2.421,0.592,4.842,0.879,7.263c1.523,12.843,2.758,26.588-3.243,38.044c-0.06,0.115-0.121,0.229-0.183,0.342
		c-8.617,15.786-22.6,9.994-23.563-7.965c-0.295-5.502-0.828-12.055-1.559-19.315c-0.155,3.79-0.173,7.582,0.046,11.377
		c0.858,14.852,5.971,30.384,17.787,39.423c13.498,10.325,32.229,9.866,49.026,7.282c15.451-2.377,60.282,1.004,65.402,1.455
		c11.821,1.041,22.914-7.171,28.822-17.463c1.37-2.389,2.5-4.881,3.473-7.436C673.171,1065.275,666.282,1063.486,661.226,1054.223z
		 M597.51,874.291c-0.81,3.863-5.713,4.681-7.382,0.993c-11.283-24.925-14.379-53.437-21.44-79.806
		c-2.143-8.006,10.375-9.589,12.726-2.584c4.809,14.331,9.165,28.703,12.541,43.444C596.805,848.784,600.182,861.564,597.51,874.291
		z M515.968,837.938c0.216,0.31,0.443,0.611,0.658,0.922c0.149,0.216,0.295,0.434,0.443,0.65c-0.116-1.227-0.255-2.473-0.354-3.686
		c-0.032,0.156-0.06,0.312-0.091,0.467C516.487,836.962,516.252,837.489,515.968,837.938z M769.958,202.495
		c1.381,6.488,2.104,13.174,2.66,19.783c0.125,1.5,0.255,3.011,0.395,4.522C774.088,218.533,772.969,210.31,769.958,202.495z
		 M1021.927,312.815c16.547-16.863,19.758-42.326,22.093-65.836c0.992-9.975,1.961-20.22-0.709-29.881
		c-2.67-9.661-9.835-18.752-19.669-20.695c-6.348-1.254-13.09,0.539-19.308-1.252c-6.158-1.773-10.81-6.758-16.462-9.778
		c-11.424-6.105-25.986-3.405-36.848,3.65c-10.863,7.055-18.721,17.809-25.911,28.583c-4.658,6.981-9.378,14.312-16.514,18.73
		c-5.404,3.345-11.772,4.741-17.514,7.462c-13.304,6.305-21.613,18.689-26.69,32.815c-1.602-13.294-1.699-26.83-3.874-40.065
		c-2.897-17.624-10.604-35.926-26.18-44.666c-4.977-2.793-10.741-4.624-14.454-8.959c-10.527-12.296,3.073-33.211-5.545-46.913
		c-7.066-11.235-23.326-9.961-36.401-12.243c-12.098-2.112-23.23-8.331-35.392-10.033c-11.377-1.592-25.09,2.754-29.13,13.103
		c-4.306-2.188-9.053-3.27-13.86-2.637c-6.731,0.886-12.829,4.933-19.612,5.242c-6.717,0.306-13.013-3.085-19.646-4.189
		c-11.394-1.896-22.895,3.306-31.267,11.453c-1.926,0.585-3.874,1.04-5.887,1.132c-6.402,0.292-12.404-2.941-18.726-3.992
		c-12.777-2.125-25.708,5.096-33.739,15.257c-8.031,10.162-12.034,22.866-15.393,35.374c-2.178,8.105-4.302,16.562-9.648,23.032
		c-0.485,0.586-1.005,1.135-1.528,1.681c7.365-1.587,13.095,8.067,5.445,12.761c-3.439,2.109,4.371,32.438,4.874,37.811
		c0.962,10.268,6.992,18.179,8.507,28.153c1.492,9.824-2.77,18.962-4.223,28.547c-2.59,17.089,1.512,34.118-0.495,51.072
		c-0.78,6.584-9.884,4.822-12.101,0.288c-5.903-12.074-4.709-31.286-3.62-44.366c0.667-8.036,2.523-15.556,4.207-23.378
		c2.032-9.443-2.272-15.476-5.229-23.975c-2.234-6.422-2.227-12.533-2.865-19.22c-0.778-8.168-4.597-14.67-6.391-22.475
		c-1.788-7.783-0.231-15.381,4.993-20.759c0.201-12.718,2.623-26.214-3.66-36.96c-5.742-9.82-18.032-15.685-20.48-26.794
		c-1.499-6.812,1.211-14.045-0.396-20.833c-2.828-11.95-17.665-17.031-29.828-15.33c-12.162,1.702-23.294,7.921-35.392,10.033
		c-13.075,2.283-29.334,1.008-36.401,12.243c-8.618,13.702,4.982,34.617-5.545,46.913c-3.712,4.335-9.476,6.166-14.453,8.959
		c-15.577,8.74-23.284,27.042-26.18,44.666c-2.049,12.464-2.277,25.19-3.631,37.733c11.322-22.178,30.151-40.843,56.851-39.359
		c21.372,1.188,34.602,19.57,36.012,39.543c0.75,10.634-4.176,21.135,1.524,31.038c3.206,5.57,8.526,7.758,13.609,11.68
		c11.091,8.559,20.332,17.888,27.745,28.036c8.205,11.234,14.12,23.495,17.741,36.861c2.565-0.625,5.167-1.119,7.811-1.437
		c6.826-0.82,17.37-3.598,20.456,4.967c0.279,0.775,0.411,1.569,0.446,2.361c9.646-0.496,14.619,11.628,7.43,18.298
		c-0.135,0.126-0.272,0.252-0.407,0.378c0.367,2.822-0.808,5.909-3.646,7.38c-4.9,2.541-9.858,4.792-14.82,6.993
		c4.248,0.694,8.388,1.92,12.33,3.607c3.573-6.499,8.001-12.624,9.774-19.796c1.264-5.111,1.094-10.462,1.883-15.668
		c1.942-12.814,9.328-23.532,18.474-33.014c8.445-8.757,14.376-19.811,16.379-31.811c1.408-8.435,5.547-16.612,11.117-23.199
		c9.112-10.779,21.57-18.095,33.89-24.983c2.726-1.524,5.636-3.226,6.899-6.083c1.556-3.516,0.129-7.541-0.903-11.245
		c-6.335-22.761,3.162-46.603,12.482-68.314c3.954-9.211,8.057-18.649,15.064-25.816c7.008-7.167,17.674-11.662,27.221-8.609
		c6.164,1.971,11.199,6.799,17.508,8.237c6.248,1.424,12.729-0.691,19.137-0.603c0.901,0.012,1.794,0.079,2.68,0.179
		c10.704,1.2,20.139,8.573,26.047,17.833c2.034-5.012,8.518-8.319,12.75-3.275c14.716,17.539,18.821,39.836,13.247,61.423
		c15.088,11.324,25.689,27.322,28.342,46.595c1.671,12.147-0.185,24.87-5.142,36.1c-2.545,5.766-5.96,11.184-10.004,16.008
		c-2.172,2.59-5.105,4.862-7.407,7.495c1.798,3.849,4.74,7.649,6.486,11.149c3.249,6.511,6.178,13.21,8.55,20.093
		c3.405,9.881,5.961,20.139,7.465,30.483c1.035,7.126,1.496,14.269,1.573,21.408c2.216-6.753,4.883-13.345,8.249-19.603
		c3.682-6.845,8.686-12.895,12.293-19.765c5.087-9.69,1.21-17.106-1.528-26.597c-4.711-16.333,4.836-24.431,7.826-39.696
		c2.971-15.17,1.125-30.732,9.436-44.427c4.161-6.857,16.239-2.17,13.009,5.788c-6.948,17.13-2.881,36.062-10.124,53.024
		c-3.87,9.063-6.636,12.927-3.323,23.205c1.798,5.577,3.964,10.901,4.178,16.845c0.453,12.583-6.613,22.414-13.046,32.568
		c-8.879,14.016-13.552,29.636-16.698,45.824c-5.686,29.247-7.951,59.736-22.511,86.367c-5.607,10.257-12.989,19.42-18.81,29.481
		c-4.488,17.026-8.333,34.259-10.595,52.058c-0.369,2.904-0.738,5.81-1.122,8.715c-0.002,0.271-0.005,0.542-0.007,0.812
		c0.414-1.205,0.827-2.411,1.284-3.598c4.362-11.35,10.737-20.713,19.213-29.361c12.359-12.61,23.494-23.454,34.213-37.829
		c18.939-25.399,33.709-52.94,48.292-81.001c15.131-29.115,25.187-57.09,28.99-89.838c3.078-26.51,7.87-50.658,21.365-74.014
		c12.409-21.477,28.513-40.336,45.564-58.234c6.673-7.005,18.092,1.045,11.353,8.83c-17.543,20.27-36.77,40.919-47.956,65.59
		c-11.992,26.449-11.154,54.821-15.256,83.007c-4.112,28.255-16.082,53.623-29.185,78.686
		c-11.601,22.188-23.25,44.479-37.195,65.311c-14.519,21.689-33.094,37.983-50.161,57.299
		c-15.819,17.901-14.611,43.867-28.952,62.932c-6.657,8.849-15.738,16.265-20.847,26.201c-5.6,10.893-4.815,23.624-8.516,35.101
		c-3.271,10.139-9.54,17.101-16.52,24.845c-7.46,8.276-9.918,15.74-9.903,24.658c4.474-6.341,8.989-12.643,13.494-18.916
		c13.628-18.976,28.153-36.498,45.798-51.886c9.858-8.597,20.252-16.537,30.642-24.473c5.373-4.104,10.824-7.535,12.99-14.441
		c1.686-5.376,1.05-11.813,2.247-17.381c2.092-9.731,5.774-18.898,10.802-27.477c4.984-8.503,9.239-11.616,17.157-17.185
		c8.077-5.681,7.351-12.948,10.12-21.917c2.509-8.127,7.021-14.779,13.23-20.526c7.383-6.837,16.38-11.526,25.649-15.297
		c3.913-1.592,8.02-2.74,11.872-4.475c8.997-4.051,10.425-8.697,13.293-17.342c3.507-10.569,10.582-14.59,15.538-24.092
		c4.784-9.171,6.723-17.61,13.915-25.546c13.096-14.454,35.143-26.393,54.383-28.555c6.849-0.77,9.473,6.797,5.993,11.389
		c4.925-1.453,9.945-2.577,15.035-3.251c0.372-0.867,0.749-1.731,1.076-2.614c7.156-19.361-0.345-40.742-7.795-59.992
		c10.229-9.727,12.866-25.444,10.101-39.285c-2.766-13.841-10.137-26.268-17.593-38.252c-1.651-2.652-3.375-5.549-3.1-8.66
		C1016.038,318.393,1019.234,315.559,1021.927,312.815z"/>
	<path fill="#66CC66" d="M514.364,450.769c-6.433,2.624-7.614,8.925-5.58,13.915C506.75,459.696,507.933,453.395,514.364,450.769z
		 M541.319,1008.573c-1.921-15.599-4.089-31.194-6.767-46.683c-2.893-9.26-4.389-18.632-5.512-28.061
		c-3.584-16.168-7.901-32.153-13.287-47.827c-4.978-14.49-10.872-28.707-18.246-42.127c-3.436-4.671-6.942-9.238-10.363-13.716
		c-50.274-65.835-114.479-120.922-157.174-192.548c-12.424-20.842-22.005-49.099-45.425-59.28
		c-16.144-7.018-27.497-14.903-37.356-29.831c-8.295-12.56-14.218-26.662-23.711-38.433c-13.532-16.781-31.296-26.085-50.429-34.954
		c-1.994-0.924-3.065-2.249-3.464-3.658c-0.867-0.139-1.727-0.313-2.598-0.428c-3.924-0.519-7.875-0.848-11.845-0.87
		c-5.479-0.03-11.233,0.33-16.14-2.108c-8.722-4.334-11.191-15.323-16.267-23.635c-9.535-15.611-31.609-22.023-48.023-13.948
		c-23.589,11.604-28.056,43.808-22.658,69.536c8.42,40.135,9.328,74.898,32.754,108.556c11.722,16.841,46.494,33.779,58.215,50.619
		c5.084,7.305,10.442,14.862,18.228,19.172c8.349,4.621,18.321,4.879,27.601,7.098c26.478,6.329,47.39,28.682,74.282,32.931
		c8.964,1.417,18.264,0.735,26.992,3.227c7.277,2.078,13.749,6.249,20.1,10.363c34.07,22.074,68.14,44.147,102.211,66.221
		c13.588,8.804,27.347,17.784,39.052,28.858c3.681,3.483,7.172,7.161,10.375,11.122c10.381,12.838,17.459,28.022,23.331,43.452
		c0.574,1.506,1.144,3.113,1.713,4.763c11.891,34.532,22.591,99.325,26.743,140.559c0.731,7.26,1.264,13.813,1.559,19.315
		c0.964,17.959,14.946,23.751,23.563,7.965c0.062-0.114,0.123-0.228,0.183-0.342c6-11.456,4.765-25.202,3.243-38.044
		C541.911,1013.416,541.617,1010.994,541.319,1008.573z M1125.288,430.466c-16.415-8.074-38.489-1.663-48.023,13.948
		c-5.077,8.312-7.545,19.301-16.268,23.635c-4.905,2.438-10.661,2.078-16.139,2.108c-3.97,0.022-7.921,0.351-11.845,0.87
		c-5.09,0.674-10.11,1.798-15.035,3.251c-0.514,0.68-1.158,1.297-1.947,1.809c-12.48,8.111-26.945,11.425-38.719,21.154
		c-0.943,0.779-1.783,1.577-2.615,2.378c-0.295,0.287-0.602,0.563-0.894,0.853c-6.946,7.07-10.079,15.036-13.622,24.576
		c-3.089,8.318-10.238,12.923-13.574,20.853c-3.3,7.844-3.19,14.935-9.55,21.505c-13.403,13.845-35.742,13.169-48.771,27.973
		c-11.33,12.874-5.452,32.605-22.556,41.591c-12.456,6.545-18.515,18.498-21.467,32.152c-1.995,9.23-1.134,18.848-5.84,27.339
		c-4.289,7.738-11.992,12.874-18.844,18.118c-9.689,7.417-19.352,14.875-28.558,22.894c-34.641,30.175-57.037,69.354-84.948,104.935
		c-0.089,0.521-0.169,1.046-0.262,1.566c-4.731,26.703-11.547,52.648-21.382,77.927c-4.066,10.45-18.344,5.167-15.225-5.448
		c6.251-21.284,11.925-42.897,16.24-64.705c-0.808-1.381-0.96-3.05,0.067-4.852c0.417-0.732,0.858-1.453,1.279-2.183
		c0.453-2.473,0.907-4.946,1.323-7.424c4.394-26.249,3.977-53.512,11.361-79.219c5.975-20.796,18.112-37.784,30.019-55.505
		c12.43-18.496,18.913-38.184,22.355-60.096c4.156-26.449,6.158-52.652,13.094-78.601c5.821-21.781,13.312-43.066,19.561-64.722
		c13.701-47.478,17.682-95.357-6.996-140.173c-3.748-6.808-7.459-12.397-4.256-20.215c3.557-8.682,13.051-13.649,17.626-22.095
		c12.361-22.819,5.384-50.806-16.909-64.469c-4.254-2.607-6.525-7.505-4.496-12.359c1.806-4.319,2.973-8.682,3.54-13.034
		c-0.14-1.511-0.269-3.022-0.395-4.522c-0.557-6.609-1.279-13.295-2.66-19.783c-1.76-4.567-4.15-8.997-7.169-13.207
		c-1.746-2.434-1.768-5.181-0.805-7.551c-5.908-9.26-15.343-16.633-26.047-17.833c-0.886-0.099-1.778-0.167-2.68-0.179
		c-6.407-0.088-12.889,2.027-19.137,0.603c-6.309-1.438-11.344-6.266-17.508-8.237c-9.548-3.053-20.213,1.443-27.221,8.609
		c-7.008,7.167-11.11,16.605-15.064,25.816c-9.32,21.71-18.818,45.553-12.482,68.314c1.032,3.703,2.458,7.729,0.903,11.245
		c-1.263,2.857-4.173,4.559-6.899,6.083c-12.32,6.887-24.779,14.204-33.89,24.983c-5.569,6.587-9.708,14.764-11.117,23.199
		c-2.003,12-7.934,23.054-16.379,31.811c-9.146,9.482-16.532,20.2-18.474,33.014c-0.789,5.206-0.619,10.557-1.883,15.668
		c-1.774,7.172-6.201,13.297-9.774,19.796c11.041,4.726,20.491,13.151,26.09,24.336c9.679,19.34,6.158,43.233-8.65,58.981
		c-0.111,0.118-0.233,0.221-0.345,0.338c2.943,2.269,5.289,5.273,6.568,8.978c-0.046-0.156-0.093-0.311-0.138-0.467
		c0.13,0.333,0.259,0.665,0.39,0.998c0.227,0.574,0.41,1.131,0.583,1.683c3.766,3.255,5.518,8.527,1.705,12.992
		c-21.478,25.146-60.888,36.741-92.491,26.058c-13.632-4.608-26.082-16.395-24.763-31.906c0.756-8.889,5.406-16.449,11.878-22.054
		c-7.825-11.601-8.881-29.583-6.178-44.378c-4.669,1.357-10.47-1.994-10.001-8.207c0.19-2.514,0.702-4.914,1.439-7.225
		c-2.312,1.035-5.295-0.164-5.795-2.89c-0.615-3.36,3.399-7.866,5.165-10.477c2.313-3.418,4.89-6.646,7.454-9.876
		c11.031-13.898,24.431-23.884,39.853-32.483c5.577-3.11,11.487-5.45,17.635-6.949c-3.62-13.366-9.535-25.627-17.741-36.861
		c-7.413-10.148-16.654-19.477-27.745-28.036c-5.083-3.922-10.403-6.109-13.609-11.68c-5.7-9.903-0.773-20.403-1.524-31.038
		c-1.411-19.973-14.641-38.356-36.012-39.543c-26.7-1.484-45.528,17.182-56.851,39.359c-1.702,3.334-3.244,6.742-4.607,10.179
		c-4.375,11.027-8.857,21.434-13.067,31.666c-3.315,8.053-6.443,15.997-9.216,24.038c6.005-1.883,13.148,2.68,9.024,9.752
		c-14.426,24.738-12.447,52.269-6.342,79.198c3.033,13.379,6.67,26.63,10.131,39.903c0.994,3.813,1.897,9.512,3.936,12.961
		c2.42,4.095,6.949,6.304,9.897,9.937c5.058,6.236,4.304,14.109,9.985,19.815c6.233,6.259,12.174,9.76,13.592,19.295
		c0.937,6.293,0.726,11.842,3.676,17.788c2.699,5.442,6.863,10.172,10.576,14.936c6.819,8.751,13.834,17.479,21.741,25.278
		c15.754,15.537,36.399,23.636,45.718,44.861c6.008,13.682,9.487,27.5,17.393,40.404c6.007,9.801,12.76,19.126,18.696,28.976
		c24.58,40.786,23.437,87.27,14.332,132.556c0.1,1.213,0.239,2.459,0.354,3.686c11.233,16.348,21.27,33.098,25.343,52.774
		c4.797,23.171,3.34,47.367,9.695,70.261c1.48,5.329-3.533,10.545-8.27,11.174c0.485,2.194,0.974,4.393,1.446,6.577
		c6.233,28.901,11.187,56.886,11.922,81.607c1.022,34.371,20.983,20.609,24.816,14.528c6.594-10.462,8.221-18.484,6.513-37.898
		c-5.841-66.432-35.578-141.461-44.018-202.811c-3.367-24.478,3.947-36.367,3.982-54.464c0.035-18.097-0.27-25.797-0.939-41.307
		c-0.112-2.6-0.186-4.916-0.251-7.135c-0.119-3.988-0.211-7.651-0.448-12.002c-1.267-23.258-0.925-44.808-7.597-67.531
		c-3.685-12.548-10.704-23.395-10.465-37.704c0.256-15.369,8.615-28.389,12.459-44.338c0.687-2.853,1.257-5.706,1.737-8.558
		c0.403,0.784,0.845,1.55,1.267,2.325c2.195,4.038,4.628,7.96,7.188,11.813c-1.813-3.635-2.779-7.609-2.579-11.906
		c0.268-5.775,8.766-9.117,12.711-5.84c-0.266-1.989-0.197-3.93,0.458-5.552c1.747-4.326,7.904-4.743,10.202-0.658
		c1.147,2.039,1.15,4.538,2.256,6.695c1.37,2.671,3.115,5.363,4.98,7.728c6.668,8.458,20.157,10.669,29.011,4.609
		c4.84-3.312,7.3-8.941,9.127-14.37c-8.605-5.435-14.799-14.435-14.217-25.119c0.515-9.474,6.529-16.148,14.008-21.144
		c-4.725-5.815-8.094-13.077-10.628-19.928c-6.981-18.875-7.477-39.927,3.679-57.279c8.76-13.625,20.564-21.126,33.546-24.09
		c-4.528,0.223-9.085,0.434-13.74,0.209c-8.189-0.395-9.654-10.129-3.149-14.332c0.9-0.582,1.841-1.115,2.802-1.621
		c-0.116-0.574-0.217-1.156-0.217-1.77c-0.001-6.353,5.193-10.461,10.594-12.585c12.751-5.015,27.868-3.873,40.725,0.493
		c13.035,4.427,23.331,13.846,32.765,23.492c1.867,1.903,1.384,5.141-0.527,6.804c2.171,2.107,4.086,4.323,5.679,6.636
		c5.209,7.566-0.475,15.23-7.632,15.301c-1.538,3.844-6.203,7.029-10.518,5.688c-1.132-0.352-2.279-0.721-3.438-1.099
		c5.643,5.989,9.931,13.293,12.214,21.459c4.07,14.561,1.291,29.939-6.558,42.185c7.05,1.569,13.243,6.158,15.669,13.186
		c-0.045-0.157-0.091-0.314-0.136-0.471c0.477,1.3,1.096,2.565,1.331,3.942c0.984,5.76-0.488,10.273-3.441,13.85
		c-0.285,1.467-0.89,2.951-1.927,4.397c-13.411,18.711-42.934,29.238-68.318,28.791c0.094,0.759,0.136,1.548,0.06,2.395
		c-1.883,20.868-24.055,34.971-43.67,35.513c-14.122,0.391-35.381-6.442-46.446-18.819c2.776,3.923,5.623,7.801,8.429,11.678
		c6.975,9.638,13.951,20.067,14.865,31.929c0.467,6.043-0.689,12.114-0.35,18.166c1.249,22.267,21.25,37.915,36.389,54.291
		c2.311,2.499,4.622,5.24,5.282,8.579c1.577,7.989-6.485,14.222-10.147,21.495c-2.853,5.664-2.906,11.982-1.369,18.17
		c1.401,5.638,4.12,11.168,7.298,15.993c6.669,10.121,15.397,19.264,18.876,30.874c5.063,16.893-2.062,34.759-3.42,52.342
		c-0.414,5.362-0.272,10.727,0.095,16.091c3.949,16.046,6.243,32.578,7.742,49.177c1.655,18.335,1.981,36.782,1.805,55.182
		c-0.163,17.129,2.268,38.296-4.942,54.109c-2.054,4.506-6.871,2.432-8.446-1.214c-5.562-12.877-2.744-29.995-2.067-44.404
		c-4.831,18.546-11.586,36.589-20.205,53.702c-4.848,9.627-6.915,20.414-6.133,31.164l0.562,7.72
		c24.931-24.229,45.62-52.668,61.422-83.62c-1.474,10.255-2.788,20.532-4.006,30.806c-1.524,12.843-2.759,26.588,3.241,38.044
		c0.061,0.115,0.122,0.229,0.183,0.342c5.056,9.263,11.945,11.052,16.981,7.358c3.548-2.602,6.186-7.901,6.583-15.323
		c0.4-7.46,1.233-16.823,2.414-27.322c4.641-41.225,14.742-100.183,25.887-132.551c0.569-1.651,1.139-3.257,1.713-4.764
		c5.873-15.43,12.951-30.614,23.331-43.452c3.202-3.961,6.694-7.639,10.376-11.122c11.704-11.073,25.462-20.054,39.052-28.858
		c34.07-22.074,68.14-44.147,102.211-66.221c6.351-4.115,12.823-8.285,20.1-10.363c8.727-2.492,18.028-1.811,26.992-3.227
		c26.891-4.249,47.803-26.602,74.282-32.931c9.281-2.219,19.252-2.477,27.6-7.098c7.787-4.311,13.143-11.867,18.228-19.172
		c11.722-16.841,46.493-33.779,58.216-50.619c23.424-33.658,24.333-68.421,32.753-108.556
		C1153.344,474.273,1148.875,442.069,1125.288,430.466z M635.945,612.571c-4.234,20.843-31.635,29.134-47.403,15.316
		c-3.754-3.29-0.717-9.369,2.96-11.024c1.939-0.872,3.718-1.768,5.871-1.853c4.302-0.169,8.89,1.716,13.168,0.107
		c5.181-1.948,8.431-8.391,11.662-12.219c2.469-2.926,7.482-2.874,10.416-0.824C636.122,604.52,636.737,608.676,635.945,612.571z
		 M656.462,800.448c-12.664-18.174-16.899-46.714-7.599-66.843c2.046-4.43,3.802-5.351,2.113-9.251
		c-0.945-2.185-4.385-4.593-5.834-6.677c-2.547-3.664-4.46-7.7-5.623-12.008c-2.772-10.274-1.194-19.858,3.392-29.218
		c2.933-5.986,14.207-1.386,12.276,5.005c-3.372,11.157-0.998,20.236,6.577,28.554c4.815,5.29,9.718,9.373,9.124,17.226
		c-0.337,4.438-2.083,6.157-4.283,10.04c-5.214,9.205-6.257,13.231-4.334,24.727c2.049,12.246,6.471,23.412,7.371,35.984
		C670.154,805.118,659.451,804.738,656.462,800.448z M516.665,450.083c-0.748,0.141-1.515,0.365-2.301,0.685
		C515.149,450.448,515.917,450.225,516.665,450.083C516.665,450.084,516.665,450.083,516.665,450.083z M538.108,442.977
		c-0.004,0.026-0.01,0.053-0.013,0.079c2.43,1.124,4.737,2.513,6.863,4.158C542.857,445.551,540.562,444.126,538.108,442.977z
		 M520.148,471.42c0.763-0.141,1.548-0.371,2.352-0.699C521.697,471.049,520.911,471.279,520.148,471.42z M494.985,454.398
		c-1.02,1.436-1.872,2.954-2.647,4.505c2.62-5.108,6.463-9.544,11.165-12.859C500.244,448.295,497.335,451.088,494.985,454.398z
		 M654.078,463.446c2.385,5.553,8.284,9.581,15.499,6.636C662.366,473.024,656.466,468.998,654.078,463.446z M694.64,470.834
		c-0.184-2.242-0.613-4.426-1.217-6.547c1.537,5.606,1.64,11.49,0.383,17.087C694.607,477.971,694.936,474.431,694.64,470.834z
		 M489.859,484.024c1.051,3.848,2.741,7.546,5.122,10.888c2.109,2.961,4.651,5.521,7.496,7.636
		C496.377,497.916,491.947,491.353,489.859,484.024z M558.277,471.804c-0.185-2.248-0.616-4.438-1.223-6.564
		c1.543,5.612,1.647,11.505,0.387,17.109C558.244,478.945,558.574,475.403,558.277,471.804z M639.861,445.078
		c-3.257,2.25-6.165,5.043-8.515,8.352c-1.024,1.444-1.881,2.971-2.658,4.53C631.309,452.843,635.153,448.398,639.861,445.078z
		 M631.343,493.943c2.1,2.948,4.631,5.497,7.462,7.607c-6.078-4.627-10.497-11.173-12.581-18.482
		C627.276,486.911,628.965,490.604,631.343,493.943z M668.671,439.882c-2.955-0.778-5.965-1.117-8.956-1.095
		c7.825,0.027,15.466,2.705,21.606,7.456C677.633,443.327,673.356,441.115,668.671,439.882z M670.88,469.475
		c6.11-3.237,7.192-9.767,5.109-15.061C678.069,459.709,676.985,466.24,670.88,469.475z"/>
	<path fill="#449247" d="M542.412,892.284c-4.073-19.676-14.109-36.426-25.343-52.774c-0.149-0.217-0.295-0.434-0.443-0.65
		c-0.214-0.311-0.442-0.611-0.658-0.922c0.284-0.449,0.519-0.976,0.655-1.647c0.032-0.155,0.06-0.311,0.091-0.467
		c9.104-45.286,10.248-91.77-14.332-132.556c-5.936-9.85-12.689-19.175-18.696-28.976c-7.907-12.904-11.386-26.722-17.393-40.404
		c-9.32-21.225-29.965-29.324-45.718-44.861c-7.907-7.799-14.922-16.527-21.741-25.278c-3.713-4.764-7.876-9.494-10.576-14.936
		c-2.95-5.945-2.74-11.495-3.676-17.788c-1.418-9.535-7.359-13.036-13.592-19.295c-5.681-5.705-4.927-13.579-9.985-19.815
		c-2.948-3.634-7.477-5.843-9.897-9.937c-2.039-3.449-2.942-9.148-3.936-12.961c-3.461-13.273-7.098-26.524-10.131-39.903
		c-6.105-26.929-8.085-54.46,6.342-79.198c4.125-7.072-3.018-11.635-9.024-9.752c-1.922,0.603-3.731,1.855-5.014,3.913
		c-23.764,38.174-9.587,84.921,0.563,125.048c2.217,8.766,3.671,18.438,9.207,25.858c2.078,2.785,5.368,4.586,7.394,7.278
		c3.252,4.322,2.645,8.887,4.844,13.601c1.38,2.955,3.385,5.456,5.686,7.742c1.898,1.7,3.861,3.321,5.891,4.862
		c2.559,5.679,4.267,11.571,5.122,17.678c2.737,9.296,7.518,16.611,13.432,24.263c14.413,18.649,29.655,35.235,49.002,48.829
		c11.874,8.343,18.66,15.877,23.521,29.544c3.316,9.324,6.34,18.471,11.106,27.191c10.526,19.261,25.967,35.685,34.197,56.193
		c8.889,22.148,9.131,46.189,8.154,70.054c-5.072-14.914-10.732-29.642-18.254-43.487c-11.275-20.752-27.683-37.07-42.528-55.166
		c-28.085-34.235-47.262-74.544-72.914-110.493c-13.368-18.732-30.231-32.971-45.677-49.746
		c-17.693-19.216-18.251-42.542-25.286-66.396c-6.591-22.354-20.825-41.059-29.346-62.56c-7.462-18.83-8.46-39.17-13.764-58.566
		c-2.715-9.928-6.56-19.647-13.047-27.732c-9.01-11.229-20.125-12.167-18.531-29.411c2.303-24.931,4.138-49.126-10.402-71.328
		c-3.999-6.108-16.32-1.45-13.517,5.949c4.243,11.198,8.301,22.051,9.507,34.016c1.26,12.508-1.24,23.053-3.043,35.289
		c-2.824,19.163,10.997,23.036,21.896,35.148c14.075,15.644,13.79,39.696,17.197,59.233c3.898,22.357,14.592,41.101,24.858,61.013
		c11.96,23.198,13.267,48.83,23.266,72.508c7.792,18.451,22.691,31.067,36.738,44.675c33.028,31.998,53.285,72.668,78.074,110.75
		c15.168,23.302,34.523,42.581,50.867,64.883c11.41,15.569,19.033,33.261,25.423,51.393c-16.296-20.058-33.627-39.284-50.969-58.459
		c-27.748-30.683-55.731-61.426-78.77-95.901c-13.94-20.86-25.58-43.254-40.122-63.712c-10.655-14.989-22.519-18.464-38.12-26.684
		c-22.752-11.989-30.178-40.268-46.158-59.034c-14.669-17.226-35.048-30.461-57.5-34.198c-5.005-0.833-8.82,3.516-7.759,7.254
		c0.4,1.409,1.47,2.734,3.464,3.658c19.133,8.869,36.897,18.174,50.429,34.954c9.493,11.77,15.415,25.873,23.711,38.433
		c9.859,14.928,21.212,22.813,37.356,29.831c23.42,10.181,33.001,38.438,45.425,59.28c42.695,71.626,106.9,126.713,157.174,192.548
		c3.42,4.478,6.926,9.044,10.363,13.716c10.769,14.639,20.843,30.326,25.326,47.7c3.634,14.084,4.536,28.23,6.208,42.254
		c1.123,9.429,2.619,18.802,5.512,28.061c0.833,2.668,1.755,5.329,2.85,7.977c1.316,3.182,3.835,4.198,6.434,3.853
		c4.737-0.629,9.75-5.845,8.27-11.174C545.752,939.651,547.209,915.455,542.412,892.284z M646.238,566.915
		c0.077-0.847,0.034-1.635-0.06-2.395c25.384,0.447,54.907-10.08,68.318-28.791c1.037-1.446,1.642-2.93,1.927-4.397
		c-8.125,9.846-27.559,12.545-38.602,14.182c-9.824,1.456-20.139,1.972-30.063,1.481c-7.881-0.39-16.691-1.505-23.602-5.609
		c-7.449-4.422-9.824-11.53-5.826-19.379c1.833-3.597,4.888-6.554,8.387-9.004c-0.995-0.803-1.969-1.641-2.909-2.525
		c-15.965-15.012-20.727-39.16-11.763-59.132c8.869-19.762,29.737-32.231,51.361-30.569c13.122,1.008,25.18,7.106,33.94,16.404
		c1.158,0.378,2.306,0.747,3.438,1.099c4.316,1.341,8.98-1.843,10.518-5.688c7.156-0.071,12.84-7.735,7.632-15.301
		c-1.593-2.313-3.508-4.53-5.679-6.636c-0.253,0.22-0.526,0.419-0.828,0.577c-3.276,1.716-5.496-0.963-7.679-2.942
		c-5.45-4.94-13.614-6.615-20.643-7.933c-7.277-1.364-14.693-2.042-22.082-2.474c-3.648-0.214-7.267-0.499-10.874,0.221
		c-3.412,0.681-6.385,2.281-9.673,3.19c-5.218,1.441-10.532-1.953-11.56-7.072c-0.961,0.506-1.901,1.039-2.802,1.621
		c-6.505,4.203-5.041,13.937,3.149,14.332c4.656,0.224,9.213,0.014,13.74-0.209c-12.982,2.964-24.786,10.464-33.546,24.09
		c-11.156,17.352-10.66,38.404-3.679,57.279c2.534,6.852,5.903,14.113,10.628,19.928c-7.479,4.997-13.493,11.671-14.008,21.144
		c-0.582,10.684,5.612,19.684,14.217,25.119c0.011-0.034,0.024-0.069,0.035-0.103c0.872-2.602,1.011-5.602,3.134-7.547
		c1.951-1.787,4.775-2.398,7.283-1.516c7.917,2.812,3.773,13.051,1.501,18.361c-2.942,6.878-6.885,13.181-12.938,17.744
		c-13.617,10.265-31.131,8.572-43.115-3.193c0.329,0.341,0.648,0.683,0.998,1.022c-0.442-0.439-0.882-0.879-1.32-1.321
		c0.105,0.105,0.218,0.195,0.323,0.299c-3.91-4.063-6.385-8.294-9.024-13.406c-1.2-2.323-2.486-5.619-2.91-8.793
		c-3.945-3.276-12.443,0.065-12.711,5.84c-0.2,4.297,0.766,8.271,2.579,11.906c1.206,2.419,2.792,4.684,4.675,6.79
		c11.064,12.378,32.324,19.21,46.446,18.819C622.183,601.886,644.355,587.783,646.238,566.915z M538.614,256.885
		c0.638,6.687,0.631,12.799,2.865,19.22c2.958,8.499,7.261,14.532,5.229,23.975c-1.685,7.823-3.54,15.343-4.207,23.378
		c-1.089,13.08-2.283,32.291,3.62,44.366c2.217,4.534,11.321,6.296,12.101-0.288c2.006-16.954-2.095-33.983,0.495-51.072
		c1.453-9.586,5.715-18.723,4.223-28.547c-1.515-9.974-7.545-17.886-8.507-28.153c-0.503-5.374-8.312-35.702-4.874-37.811
		c7.65-4.695,1.92-14.348-5.445-12.761c-0.907,0.195-1.836,0.53-2.77,1.098c-1.598,0.971-2.928,2.127-4.128,3.361
		c-5.224,5.378-6.781,12.977-4.993,20.759C534.017,242.215,537.836,248.717,538.614,256.885z M458.981,460.187
		c-2.703,14.795-1.647,32.776,6.178,44.378c-6.472,5.605-11.121,13.165-11.878,22.054c-1.319,15.511,11.131,27.298,24.763,31.906
		c31.603,10.682,71.013-0.912,92.491-26.058c3.813-4.465,2.061-9.737-1.705-12.992c6.407,20.523-23.909,26.318-38.198,28.731
		c-9.862,1.665-20.062,2.346-30.067,2.157c-8.634-0.163-18.128-1.021-25.923-5.088c-7.667-4.002-11.097-10.771-7.471-18.988
		c3.388-7.675,11.912-12.4,19.278-15.678c0.576-0.257,1.16-0.472,1.741-0.699c-11.065-10.6-17.327-25.871-16.121-41.564
		c1.658-21.572,17.015-40.326,37.859-46.15c7.316-2.045,14.84-2.357,22.072-1.175c4.961-2.2,9.919-4.452,14.82-6.993
		c2.838-1.472,4.013-4.558,3.646-7.38c0.135-0.126,0.272-0.252,0.407-0.378c7.188-6.671,2.216-18.794-7.43-18.298
		c0.125,2.782-1.157,5.532-3.366,7.296c-2.983,2.384-6.549,2.182-10.148,2.242c-4.011,0.067-8.122-0.229-12.118,0.11
		c-4.22,0.357-8.416,1.758-12.416,3.06c-9.116,3.357-18.093,8.059-26.114,13.53c-8.052,5.491-14.548,12.747-20.793,20.153
		c-1.531,1.815-3.031,3.628-4.351,5.605c-0.869,1.301-1.506,3.12-2.691,4.146c-0.317,0.275-0.665,0.481-1.027,0.643
		c-0.737,2.31-1.249,4.71-1.439,7.225C448.511,458.194,454.312,461.544,458.981,460.187z M1011.984,462.889
		c-19.24,2.163-41.287,14.101-54.383,28.555c-7.192,7.936-9.131,16.375-13.915,25.546c-4.957,9.502-12.031,13.523-15.538,24.092
		c-2.869,8.646-4.296,13.291-13.293,17.342c-3.852,1.735-7.959,2.883-11.872,4.475c-9.269,3.771-18.266,8.46-25.649,15.297
		c-6.209,5.748-10.721,12.399-13.23,20.526c-2.769,8.969-2.043,16.236-10.12,21.917c-7.918,5.569-12.173,8.682-17.157,17.185
		c-5.028,8.579-8.711,17.746-10.802,27.477c-1.197,5.568-0.562,12.005-2.247,17.381c-2.166,6.906-7.617,10.337-12.99,14.441
		c-10.389,7.937-20.784,15.876-30.642,24.473c-17.644,15.388-32.169,32.909-45.798,51.886c-4.506,6.274-9.02,12.576-13.494,18.916
		c-0.015-8.918,2.444-16.382,9.903-24.658c6.98-7.744,13.25-14.706,16.52-24.845c3.701-11.478,2.916-24.208,8.516-35.101
		c5.109-9.937,14.19-17.352,20.847-26.201c14.341-19.065,13.134-45.03,28.952-62.932c17.067-19.316,35.642-35.61,50.161-57.299
		c13.945-20.832,25.594-43.123,37.195-65.311c13.103-25.063,25.073-50.43,29.185-78.686c4.101-28.186,3.263-56.559,15.256-83.007
		c11.186-24.671,30.413-45.32,47.956-65.59c6.739-7.785-4.68-15.834-11.353-8.83c-17.051,17.899-33.155,36.758-45.564,58.234
		c-13.494,23.356-18.286,47.504-21.365,74.014c-3.803,32.748-13.859,60.723-28.99,89.838
		c-14.583,28.061-29.353,55.602-48.292,81.001c-10.719,14.375-21.854,25.219-34.213,37.829
		c-8.477,8.648-14.851,18.012-19.213,29.361c-0.457,1.187-0.87,2.393-1.284,3.598c0.002-0.271,0.005-0.542,0.007-0.812
		c0.384-2.905,0.753-5.811,1.122-8.715c2.262-17.799,6.108-35.032,10.595-52.058c5.821-10.061,13.203-19.224,18.81-29.481
		c14.56-26.631,16.825-57.12,22.511-86.367c3.146-16.188,7.819-31.807,16.698-45.824c6.433-10.154,13.499-19.985,13.046-32.568
		c-0.214-5.945-2.38-11.268-4.178-16.845c-3.313-10.278-0.547-14.142,3.323-23.205c7.243-16.962,3.176-35.894,10.124-53.024
		c3.229-7.958-8.848-12.645-13.009-5.788c-8.31,13.695-6.465,29.257-9.436,44.427c-2.99,15.265-12.537,23.363-7.826,39.696
		c2.737,9.491,6.614,16.907,1.528,26.597c-3.607,6.87-8.611,12.921-12.293,19.765c-3.366,6.258-6.033,12.851-8.249,19.603
		c-0.077-7.139-0.537-14.281-1.573-21.408c-1.503-10.344-4.06-20.602-7.465-30.483c-2.372-6.883-5.301-13.581-8.55-20.093
		c-1.747-3.5-4.689-7.299-6.486-11.149c2.302-2.633,5.235-4.905,7.407-7.495c4.044-4.823,7.46-10.242,10.004-16.008
		c4.957-11.231,6.813-23.953,5.142-36.1c-2.653-19.273-13.254-35.271-28.342-46.595c5.574-21.587,1.469-43.884-13.247-61.423
		c-4.232-5.044-10.716-1.737-12.75,3.275c-0.962,2.37-0.94,5.117,0.805,7.551c3.018,4.209,5.408,8.64,7.169,13.207
		c3.011,7.814,4.131,16.037,3.055,24.305c-0.566,4.352-1.733,8.715-3.54,13.034c-2.029,4.854,0.242,9.752,4.496,12.359
		c22.293,13.663,29.27,41.65,16.909,64.469c-4.575,8.446-14.069,13.413-17.626,22.095c-3.202,7.817,0.508,13.407,4.256,20.215
		c24.678,44.816,20.697,92.696,6.996,140.173c-6.249,21.656-13.739,42.94-19.561,64.722c-6.936,25.949-8.937,52.152-13.094,78.601
		c-3.442,21.912-9.925,41.6-22.355,60.096c-11.907,17.721-24.044,34.709-30.019,55.505c-7.384,25.708-6.968,52.971-11.361,79.219
		c-0.415,2.478-0.87,4.951-1.323,7.424c-0.422,0.73-0.862,1.451-1.279,2.183c-1.027,1.802-0.875,3.472-0.067,4.852
		c-4.315,21.808-9.989,43.421-16.24,64.705c-3.118,10.614,11.159,15.897,15.225,5.448c9.835-25.279,16.65-51.224,21.382-77.927
		c0.093-0.52,0.173-1.045,0.262-1.566c27.911-35.581,50.307-74.76,84.948-104.935c9.205-8.019,18.869-15.477,28.558-22.894
		c6.852-5.244,14.555-10.38,18.844-18.118c4.706-8.491,3.844-18.109,5.84-27.339c2.952-13.654,9.01-25.608,21.467-32.152
		c17.104-8.986,11.226-28.716,22.556-41.591c13.029-14.804,35.368-14.128,48.771-27.973c6.36-6.57,6.25-13.66,9.55-21.505
		c3.335-7.93,10.484-12.535,13.574-20.853c3.543-9.54,6.676-17.506,13.622-24.576c0.283-0.287,0.599-0.569,0.894-0.853
		c0.832-0.801,1.672-1.599,2.615-2.378c11.774-9.729,26.24-13.043,38.719-21.154c0.788-0.513,1.432-1.129,1.947-1.809
		C1021.458,469.686,1018.834,462.119,1011.984,462.889z M662.272,762.005c-1.923-11.496-0.88-15.522,4.334-24.727
		c2.2-3.884,3.945-5.602,4.283-10.04c0.594-7.853-4.308-11.937-9.124-17.226c-7.574-8.319-9.948-17.397-6.577-28.554
		c1.931-6.391-9.343-10.991-12.276-5.005c-4.586,9.36-6.165,18.944-3.392,29.218c1.163,4.308,3.076,8.344,5.623,12.008
		c1.448,2.084,4.888,4.492,5.834,6.677c1.688,3.901-0.067,4.821-2.113,9.251c-9.3,20.128-5.065,48.668,7.599,66.843
		c2.989,4.29,13.692,4.67,13.181-2.459C668.743,785.417,664.321,774.251,662.272,762.005z M641.618,967.574
		c0.175-18.4-0.15-36.847-1.805-55.182c-1.5-16.599-3.793-33.131-7.742-49.177c-4.131-16.784-10.073-33.035-18.859-48.259
		c-2.621-4.542-12.139-4.964-9.884,2.004c11.344,35.069,19.704,69.945,21.976,106.857c0.988,16.049,1.194,32.131,0.992,48.206
		c-0.016,1.316-0.068,2.671-0.133,4.042c-0.677,14.409-3.495,31.527,2.067,44.404c1.575,3.646,6.393,5.72,8.446,1.214
		C643.886,1005.87,641.455,984.703,641.618,967.574z M581.414,792.894c-2.351-7.005-14.868-5.422-12.726,2.584
		c7.061,26.369,10.157,54.88,21.44,79.806c1.669,3.688,6.572,2.87,7.382-0.993c2.673-12.727-0.705-25.507-3.556-37.953
		C590.579,821.597,586.223,807.225,581.414,792.894z M622.204,602.899c-3.232,3.828-6.482,10.271-11.662,12.219
		c-4.278,1.608-8.865-0.277-13.168-0.107c-2.154,0.085-3.932,0.98-5.871,1.853c-3.677,1.656-6.714,7.734-2.96,11.024
		c15.769,13.818,43.169,5.527,47.403-15.316c0.792-3.895,0.177-8.051-3.325-10.496C629.685,600.025,624.673,599.973,622.204,602.899
		z"/>
	<path fill="#FFB3B3" d="M669.217,507.329c1.517-0.424,2.961-0.992,4.374-1.617c-5.038,2.141-10.54,3.096-16.015,2.769
		C661.447,508.749,665.382,508.401,669.217,507.329z M532.856,508.296c1.515-0.424,2.961-0.992,4.374-1.617
		c-5.036,2.14-10.536,3.095-16.007,2.77C525.092,509.716,529.024,509.368,532.856,508.296z M719.865,517.483
		c-0.235-1.377-0.854-2.642-1.331-3.942c0.045,0.157,0.091,0.314,0.136,0.471c-2.425-7.029-8.618-11.617-15.669-13.186
		c-4.901,7.645-11.765,14.076-20.21,18.303c-18.185,9.102-40.395,6.525-56.075-6.125c-3.498,2.45-6.553,5.407-8.387,9.004
		c-3.998,7.849-1.622,14.957,5.826,19.379c6.912,4.104,15.721,5.219,23.602,5.609c9.924,0.491,20.239-0.025,30.063-1.481
		c11.043-1.636,30.477-4.336,38.602-14.182C719.377,527.755,720.849,523.243,719.865,517.483z M568.246,517.792
		c-0.13-0.333-0.259-0.665-0.39-0.998c0.045,0.156,0.091,0.312,0.138,0.467c-1.279-3.706-3.625-6.709-6.568-8.978
		c-15.034,15.685-38.962,20.327-58.786,11.427c-5.422-2.433-10.268-5.794-14.449-9.801c-0.581,0.227-1.165,0.442-1.741,0.699
		c-7.366,3.279-15.89,8.003-19.278,15.678c-3.626,8.216-0.196,14.986,7.471,18.988c7.795,4.067,17.289,4.925,25.923,5.088
		c10.004,0.189,20.205-0.492,30.067-2.157c14.289-2.412,44.605-8.207,38.198-28.731
		C568.656,518.922,568.472,518.365,568.246,517.792z"/>
	<path fill="#FFFFFF" d="M516.665,450.084c-0.748,0.141-1.515,0.365-2.301,0.685c-6.43,2.627-7.613,8.927-5.58,13.915
		c1.4,3.429,4.318,6.239,8.096,6.806c0.344,0.051,0.694,0.085,1.051,0.098c0.714,0.027,1.454-0.026,2.218-0.167
		c0.763-0.141,1.548-0.371,2.352-0.699c6.43-2.626,7.611-8.924,5.578-13.911C526.293,452.432,522.029,449.069,516.665,450.084z
		 M709.56,458.641c-2.283-8.166-6.571-15.47-12.214-21.459c-8.761-9.298-20.819-15.396-33.94-16.404
		c-21.624-1.662-42.492,10.807-51.361,30.569c-8.964,19.972-4.201,44.12,11.763,59.132c0.94,0.884,1.914,1.722,2.909,2.525
		c15.68,12.65,37.89,15.227,56.075,6.125c8.445-4.227,15.309-10.659,20.21-18.303C710.851,488.58,713.63,473.202,709.56,458.641z
		 M693.177,483.776c-0.121,0.405-0.258,0.805-0.393,1.205c-0.118,0.336-0.228,0.673-0.356,1.004c-1.643,4.406-4.153,8.515-7.518,12
		c-2.123,2.197-4.519,4.047-7.086,5.578c-0.209,0.128-0.424,0.25-0.636,0.374c-0.438,0.249-0.879,0.49-1.328,0.719
		c-2.096,1.101-4.307,2.02-6.644,2.673c-3.835,1.072-7.77,1.42-11.64,1.152c-3.949-0.236-7.881-1.116-11.604-2.726
		c-2.581-1.116-4.98-2.538-7.167-4.204c-2.831-2.11-5.362-4.66-7.462-7.607c-2.378-3.338-4.067-7.032-5.119-10.875
		c-1.093-3.831-1.564-7.864-1.262-11.951c0.268-3.609,1.11-7.102,2.436-10.374c1.007-2.56,2.321-5.02,3.948-7.312
		c2.35-3.309,5.257-6.101,8.515-8.352c3.17-2.235,6.713-3.976,10.545-5.047c2.335-0.653,4.702-1.014,7.064-1.16
		c0.504-0.036,1.01-0.059,1.517-0.074c0.244-0.004,0.486-0.012,0.728-0.011c2.99-0.023,6,0.316,8.956,1.095
		c4.685,1.234,8.962,3.445,12.65,6.361c0.281,0.218,0.552,0.449,0.827,0.676c0.323,0.271,0.646,0.541,0.959,0.824
		c3.228,2.859,5.969,6.314,7.962,10.31c1.005,2.014,1.771,4.106,2.355,6.234c0.604,2.121,1.033,4.305,1.217,6.547
		C695.007,475.283,694.455,479.659,693.177,483.776z M661.673,446.888c-0.447,0.132-0.899,0.291-1.357,0.477
		c-0.915,0.373-1.737,0.812-2.47,1.305c-5.212,3.507-5.92,9.762-3.768,14.775c2.388,5.552,8.288,9.578,15.499,6.636
		c0.457-0.187,0.892-0.39,1.302-0.608c6.105-3.235,7.189-9.766,5.109-15.061C673.862,449.008,668.437,444.891,661.673,446.888z
		 M544.331,424.628c-3.942-1.688-8.082-2.913-12.33-3.607c-7.232-1.182-14.756-0.869-22.072,1.175
		c-20.844,5.824-36.201,24.578-37.859,46.15c-1.206,15.693,5.055,30.964,16.121,41.564c4.182,4.007,9.027,7.367,14.449,9.801
		c19.825,8.9,43.752,4.258,58.786-11.427c0.112-0.116,0.234-0.22,0.345-0.338c14.807-15.748,18.329-39.641,8.65-58.981
		C564.822,437.779,555.372,429.354,544.331,424.628z M556.813,484.753c-0.119,0.398-0.253,0.79-0.386,1.184
		c-0.119,0.342-0.233,0.685-0.362,1.022c-1.642,4.404-4.151,8.511-7.517,11.994c-2.122,2.197-4.518,4.047-7.085,5.578
		c-0.211,0.128-0.424,0.249-0.637,0.373c-0.437,0.249-0.878,0.49-1.325,0.719c-2.096,1.101-4.308,2.02-6.645,2.674
		c-3.832,1.071-7.764,1.42-11.633,1.153c-3.952-0.235-7.887-1.115-11.614-2.726c-2.567-1.11-4.953-2.521-7.132-4.176
		c-2.846-2.115-5.388-4.675-7.496-7.636c-2.381-3.342-4.071-7.04-5.122-10.888c-1.09-3.827-1.56-7.857-1.258-11.94
		c0.268-3.622,1.113-7.127,2.448-10.409c1.005-2.548,2.316-4.995,3.936-7.278c2.351-3.31,5.26-6.103,8.518-8.354
		c3.168-2.233,6.712-3.974,10.543-5.044c2.335-0.653,4.702-1.014,7.065-1.16c0.503-0.036,1.007-0.059,1.513-0.073
		c0.244-0.004,0.487-0.012,0.732-0.011c2.988-0.023,5.998,0.317,8.952,1.095c2.016,0.531,3.948,1.258,5.801,2.126
		c2.453,1.15,4.748,2.575,6.849,4.237c0.281,0.218,0.552,0.449,0.826,0.676c0.323,0.272,0.647,0.542,0.96,0.825
		c3.227,2.859,5.968,6.314,7.96,10.31c1.003,2.009,1.768,4.095,2.35,6.217c0.607,2.126,1.038,4.316,1.223,6.564
		C558.645,476.256,558.092,480.634,556.813,484.753z"/>
	<path d="M554.704,459.023c-1.993-3.996-4.734-7.451-7.96-10.31c-0.315-0.28-0.635-0.557-0.96-0.825
		c-0.274-0.226-0.544-0.458-0.826-0.676c-2.126-1.645-4.433-3.033-6.863-4.158c-4.592-2.124-9.624-3.282-14.739-3.301
		c-0.245-0.001-0.488,0.007-0.732,0.011c-0.504,0.009-1.009,0.042-1.513,0.073c-2.363,0.146-4.73,0.507-7.065,1.16
		c-3.831,1.07-7.375,2.811-10.543,5.044c-5.536,3.903-9.9,9.349-12.454,15.632c-1.335,3.282-2.18,6.787-2.448,10.409
		c-0.302,4.083,0.168,8.112,1.258,11.94c2.088,7.329,6.518,13.892,12.618,18.524c2.179,1.654,4.565,3.066,7.132,4.176
		c3.726,1.611,7.662,2.491,11.614,2.726c6.306,0.375,12.651-0.946,18.278-3.827c0.447-0.229,0.888-0.47,1.325-0.719
		c0.213-0.121,0.425-0.247,0.637-0.373c2.567-1.531,4.963-3.381,7.085-5.578c3.366-3.483,5.875-7.591,7.517-11.994
		c0.125-0.339,0.246-0.68,0.362-1.022c0.133-0.394,0.267-0.786,0.386-1.184c1.889-6.303,2.006-13.091,0.241-19.513
		C556.471,463.118,555.706,461.032,554.704,459.023z M522.501,470.721c-0.804,0.328-1.59,0.558-2.352,0.699
		c-0.764,0.141-1.504,0.194-2.218,0.167c-0.357-0.013-0.708-0.046-1.051-0.098c-3.777-0.567-6.696-3.376-8.096-6.806
		c-2.034-4.989-0.853-11.291,5.58-13.915c0.786-0.32,1.553-0.544,2.301-0.685c5.365-1.016,9.628,2.348,11.414,6.726
		C530.111,461.796,528.931,468.095,522.501,470.721z M517.811,397.619c3.995-0.338,8.107-0.043,12.118-0.11
		c3.599-0.06,7.165,0.142,10.148-2.242c2.208-1.764,3.491-4.514,3.366-7.296c-0.035-0.792-0.167-1.586-0.446-2.361
		c-3.085-8.564-13.63-5.787-20.456-4.967c-2.643,0.317-5.245,0.811-7.811,1.437c-6.148,1.499-12.058,3.839-17.635,6.949
		c-15.423,8.6-28.822,18.586-39.853,32.483c-2.564,3.23-5.14,6.458-7.454,9.876c-1.766,2.611-5.78,7.118-5.165,10.477
		c0.499,2.726,3.483,3.925,5.795,2.89c0.362-0.162,0.71-0.368,1.027-0.643c1.185-1.026,1.822-2.845,2.691-4.146
		c1.32-1.977,2.82-3.79,4.351-5.605c6.245-7.406,12.742-14.662,20.793-20.153c8.021-5.471,16.998-10.173,26.114-13.53
		C509.395,399.376,513.591,397.976,517.811,397.619z M574.512,582.294c-0.35-0.339-0.669-0.681-0.998-1.022
		c-0.105-0.104-0.218-0.194-0.323-0.299C573.63,581.414,574.07,581.855,574.512,582.294z M628.066,548.36
		c-2.508-0.882-5.332-0.271-7.283,1.516c-2.123,1.945-2.262,4.945-3.134,7.547c-0.011,0.034-0.024,0.069-0.035,0.103
		c-1.827,5.429-4.288,11.058-9.127,14.37c-8.853,6.059-22.343,3.849-29.011-4.609c-1.865-2.365-3.609-5.057-4.98-7.728
		c-1.106-2.157-1.108-4.656-2.256-6.695c-2.297-4.085-8.455-3.667-10.202,0.658c-0.655,1.622-0.724,3.563-0.458,5.552
		c0.424,3.174,1.71,6.47,2.91,8.793c2.638,5.112,5.114,9.343,9.024,13.406c11.984,11.765,29.498,13.458,43.115,3.193
		c6.053-4.563,9.996-10.867,12.938-17.744C631.839,561.411,635.983,551.172,628.066,548.36z M713.782,403.852
		c-9.434-9.646-19.73-19.066-32.765-23.492c-12.857-4.366-27.974-5.507-40.725-0.493c-5.401,2.124-10.595,6.232-10.594,12.585
		c0,0.614,0.101,1.196,0.217,1.77c1.028,5.119,6.341,8.514,11.56,7.072c3.288-0.909,6.261-2.509,9.673-3.19
		c3.607-0.72,7.226-0.435,10.874-0.221c7.389,0.433,14.805,1.11,22.082,2.474c7.03,1.318,15.194,2.993,20.643,7.933
		c2.183,1.979,4.404,4.659,7.679,2.942c0.302-0.158,0.575-0.357,0.828-0.577C715.166,408.993,715.649,405.755,713.782,403.852z
		 M691.069,458.052c-1.993-3.996-4.734-7.451-7.962-10.31c-0.315-0.28-0.633-0.556-0.959-0.824
		c-0.275-0.227-0.546-0.458-0.827-0.676c-6.139-4.751-13.781-7.429-21.606-7.456c-0.242-0.001-0.485,0.007-0.728,0.011
		c-0.505,0.009-1.011,0.042-1.517,0.074c-2.362,0.146-4.729,0.507-7.064,1.16c-3.832,1.071-7.376,2.812-10.545,5.047
		c-5.544,3.91-9.911,9.369-12.463,15.664c-1.327,3.272-2.168,6.765-2.436,10.374c-0.302,4.087,0.169,8.12,1.262,11.951
		c2.084,7.309,6.502,13.855,12.581,18.482c2.188,1.666,4.586,3.088,7.167,4.204c3.723,1.61,7.655,2.49,11.604,2.726
		c6.309,0.377,12.655-0.943,18.284-3.825c0.448-0.229,0.889-0.47,1.328-0.719c0.213-0.122,0.425-0.247,0.636-0.374
		c2.567-1.53,4.963-3.381,7.086-5.578c3.366-3.484,5.875-7.594,7.518-12c0.124-0.333,0.241-0.668,0.356-1.004
		c0.135-0.401,0.273-0.8,0.393-1.205c1.886-6.296,2.005-13.075,0.246-19.489C692.84,462.159,692.074,460.067,691.069,458.052z
		 M670.88,469.475c-0.411,0.218-0.845,0.421-1.302,0.608c-7.215,2.944-13.114-1.083-15.499-6.636
		c-2.152-5.013-1.445-11.268,3.768-14.775c0.733-0.493,1.556-0.932,2.47-1.305c0.458-0.187,0.91-0.345,1.357-0.477
		c6.764-1.997,12.188,2.12,14.315,7.525C678.071,459.708,676.99,466.238,670.88,469.475z"/>
</g>
</svg>
